<svg width="1000" height="1000" viewBox="0 0 1000 1000" fill="none" xmlns="http://www.w3.org/2000/svg">
<path d="M191.114 200V435H15V200V15H405V185H206.114H191.114V200Z" fill="#C1051B" stroke="black" stroke-width="30"/>
<path d="M191.114 800V565H15V800V985H405V815H206.114H191.114V800Z" fill="#FFD92A" stroke="black" stroke-width="30"/>
<path d="M808.886 800V565H985V800V985H595V815H793.886H808.886V800Z" fill="#0F2B3F" stroke="black" stroke-width="30"/>
<path d="M800 185H595V15H985V200V435H815V200V185H800Z" fill="#004863" stroke="black" stroke-width="30"/>
<rect x="200" y="200" width="603" height="250" fill="black"/>
<rect x="251" y="400" width="500" height="200" fill="black"/>
<rect x="200" y="550" width="603" height="250" fill="black"/>
<path d="M231.2 372V230H292.4C299.333 230 305.733 231.4 311.6 234.2C317.467 237 322.533 240.8 326.8 245.6C331.067 250.267 334.333 255.533 336.6 261.4C339 267.267 340.2 273.2 340.2 279.2C340.2 287.6 338.2 295.533 334.2 303C330.333 310.467 324.867 316.6 317.8 321.4C310.867 326.067 302.733 328.4 293.4 328.4H270.2V372H231.2ZM270.2 294.4H290.8C292.4 294.4 293.933 293.933 295.4 293C296.867 292.067 298.067 290.467 299 288.2C300.067 285.933 300.6 282.933 300.6 279.2C300.6 275.2 300 272.133 298.8 270C297.733 267.733 296.333 266.2 294.6 265.4C293 264.467 291.4 264 289.8 264H270.2V294.4ZM355.809 372V230H394.809V372H355.809ZM520.486 338V372H419.286V230H518.686V264H458.286V284H509.886V315.6H458.286V338H520.486ZM528.673 299.8C528.673 291.133 530.273 282.667 533.473 274.4C536.807 266 541.607 258.4 547.873 251.6C554.14 244.8 561.74 239.4 570.673 235.4C579.74 231.267 589.94 229.2 601.273 229.2C614.873 229.2 626.74 232.067 636.873 237.8C647.007 243.4 654.54 250.867 659.473 260.2L629.673 281.4C627.94 276.733 625.407 273.133 622.073 270.6C618.873 268.067 615.34 266.333 611.473 265.4C607.74 264.333 604.073 263.8 600.473 263.8C594.873 263.8 590.007 264.933 585.873 267.2C581.873 269.333 578.54 272.2 575.873 275.8C573.34 279.4 571.407 283.4 570.073 287.8C568.873 292.2 568.273 296.6 568.273 301C568.273 305.933 569.007 310.667 570.473 315.2C571.94 319.733 574.073 323.8 576.873 327.4C579.673 330.867 583.073 333.6 587.073 335.6C591.207 337.6 595.807 338.6 600.873 338.6C604.473 338.6 608.14 338.067 611.873 337C615.607 335.8 619.007 333.933 622.073 331.4C625.14 328.867 627.473 325.467 629.073 321.2L660.873 340.2C658.073 347.133 653.407 353.067 646.873 358C640.34 362.933 632.94 366.733 624.673 369.4C616.407 371.933 608.207 373.2 600.073 373.2C589.54 373.2 579.873 371.133 571.073 367C562.407 362.733 554.873 357.133 548.473 350.2C542.207 343.133 537.34 335.267 533.873 326.6C530.407 317.8 528.673 308.867 528.673 299.8ZM775.955 338V372H674.755V230H774.155V264H713.755V284H765.355V315.6H713.755V338H775.955Z" fill="white"/>
<path d="M231.2 770V628H292.4C299.333 628 305.733 629.4 311.6 632.2C317.467 635 322.533 638.8 326.8 643.6C331.067 648.267 334.333 653.533 336.6 659.4C339 665.267 340.2 671.2 340.2 677.2C340.2 685.6 338.2 693.533 334.2 701C330.333 708.467 324.867 714.6 317.8 719.4C310.867 724.067 302.733 726.4 293.4 726.4H270.2V770H231.2ZM270.2 692.4H290.8C292.4 692.4 293.933 691.933 295.4 691C296.867 690.067 298.067 688.467 299 686.2C300.067 683.933 300.6 680.933 300.6 677.2C300.6 673.2 300 670.133 298.8 668C297.733 665.733 296.333 664.2 294.6 663.4C293 662.467 291.4 662 289.8 662H270.2V692.4ZM355.809 770V628H394.809V770H355.809ZM520.486 736V770H419.286V628H518.686V662H458.286V682H509.886V713.6H458.286V736H520.486ZM528.673 697.8C528.673 689.133 530.273 680.667 533.473 672.4C536.807 664 541.607 656.4 547.873 649.6C554.14 642.8 561.74 637.4 570.673 633.4C579.74 629.267 589.94 627.2 601.273 627.2C614.873 627.2 626.74 630.067 636.873 635.8C647.007 641.4 654.54 648.867 659.473 658.2L629.673 679.4C627.94 674.733 625.407 671.133 622.073 668.6C618.873 666.067 615.34 664.333 611.473 663.4C607.74 662.333 604.073 661.8 600.473 661.8C594.873 661.8 590.007 662.933 585.873 665.2C581.873 667.333 578.54 670.2 575.873 673.8C573.34 677.4 571.407 681.4 570.073 685.8C568.873 690.2 568.273 694.6 568.273 699C568.273 703.933 569.007 708.667 570.473 713.2C571.94 717.733 574.073 721.8 576.873 725.4C579.673 728.867 583.073 731.6 587.073 733.6C591.207 735.6 595.807 736.6 600.873 736.6C604.473 736.6 608.14 736.067 611.873 735C615.607 733.8 619.007 731.933 622.073 729.4C625.14 726.867 627.473 723.467 629.073 719.2L660.873 738.2C658.073 745.133 653.407 751.067 646.873 756C640.34 760.933 632.94 764.733 624.673 767.4C616.407 769.933 608.207 771.2 600.073 771.2C589.54 771.2 579.873 769.133 571.073 765C562.407 760.733 554.873 755.133 548.473 748.2C542.207 741.133 537.34 733.267 533.873 724.6C530.407 715.8 528.673 706.867 528.673 697.8ZM775.955 736V770H674.755V628H774.155V662H713.755V682H765.355V713.6H713.755V736H775.955Z" fill="white"/>
<path d="M500.4 532.88C500.4 539.707 498.533 545.253 494.8 549.52C491.173 553.787 486.267 556.933 480.08 558.96C473.893 560.987 467.067 562 459.6 562H403.76V448.4H469.68C475.013 448.4 479.6 449.84 483.44 452.72C487.387 455.493 490.373 459.12 492.4 463.6C494.533 468.08 495.6 472.72 495.6 477.52C495.6 482.747 494.213 487.813 491.44 492.72C488.773 497.627 484.72 501.307 479.28 503.76C485.787 505.68 490.907 509.04 494.64 513.84C498.48 518.64 500.4 524.987 500.4 532.88ZM468.72 526.48C468.72 524.56 468.347 522.907 467.6 521.52C466.96 520.027 466.053 518.853 464.88 518C463.707 517.147 462.32 516.72 460.72 516.72H434.96V535.76H459.6C461.307 535.76 462.853 535.387 464.24 534.64C465.627 533.893 466.693 532.827 467.44 531.44C468.293 530.053 468.72 528.4 468.72 526.48ZM434.96 474.96V492.4H456.24C457.627 492.4 458.96 492.187 460.24 491.76C461.52 491.227 462.587 490.32 463.44 489.04C464.293 487.76 464.72 485.947 464.72 483.6C464.72 481.467 464.347 479.813 463.6 478.64C462.96 477.36 462.053 476.453 460.88 475.92C459.813 475.28 458.587 474.96 457.2 474.96H434.96ZM531.956 448.4L552.276 494.8L573.076 448.4H606.996L567.796 524.4V562H536.756V524.08L498.196 448.4H531.956Z" fill="white"/>
</svg>
